<?xml version="1.0" encoding="utf-8"?>
<svg version="1.1" xmlns:xlink="http://www.w3.org/1999/xlink" width="391px" height="391px" xmlns="http://www.w3.org/2000/svg">
  <g transform="matrix(1 0 0 1 -767 -448 )">
    <path d="M 389 202  L 364.7296875 202  C 364.7296875 200.08203125  365.03515625 197.94375  365.03515625 195.5  C 365.03515625 193.05625  365.03515625 190.91796875  364.7296875 189  L 389 189  L 389 202  Z M 28.103125 223.90859375  C 29.01953125 228.490625  29.9359375 233.07265625  31.1578125 237.6546875  L 7.02578124999995 242.84765625  L 3.97109374999995 229.1015625  L 28.103125 223.90859375  Z M 32.68515625 241.01484375  C 33.6015625 245.596875  34.8234375 250.17890625  36.65625 254.45546875  L 13.440625 262.0921875  L 9.1640625 248.6515625  L 32.68515625 241.01484375  Z M 37.878125 258.12109375  C 39.7109375 262.39765625  41.54375 266.67421875  43.68203125 270.95078125  L 21.07734375 281.03125  L 15.2734375 268.2015625  L 37.878125 258.12109375  Z M 45.2093749999999 274.00546875  C 47.34765625 278.28203125  49.79140625 282.253125  52.23515625 286.22421875  L 30.85234375 298.44296875  L 23.8265624999999 286.22421875  L 45.2093749999999 274.00546875  Z M 54.3734375 289.27890625  C 56.8171875 293.25  59.56640625 296.915625  62.62109375 300.58125  L 42.765625 314.93828125  L 34.51796875 303.6359375  L 54.3734375 289.27890625  Z M 64.759375 303.6359375  C 67.8140625 307.3015625  71.17421875 310.66171875  74.22890625 314.021875  L 55.90078125 330.5171875  L 46.4312500000001 320.13125  L 64.759375 303.6359375  Z M 76.978125 316.77109375  C 80.33828125 319.82578125  83.6984375 323.1859375  87.3640625 326.240625  L 70.86875 344.56875  L 60.4828124999999 335.09921875  L 76.978125 316.77109375  Z M 90.4187500000001 328.37890625  C 94.084375 331.128125  97.75 334.1828125  101.72109375 336.6265625  L 87.3640625000001 356.48203125  L 76.0617187500001 348.234375  L 90.4187500000001 328.37890625  Z M 104.77578125 338.76484375  C 108.746875 341.20859375  112.71796875 343.65234375  116.99453125 345.790625  L 104.77578125 367.1734375  L 92.55703125 360.14765625  L 104.77578125 338.76484375  Z M 120.3546875 347.31796875  C 124.32578125 349.45625  128.60234375 351.2890625  133.184375 353.121875  L 123.10390625 375.7265625  L 110.27421875 369.92265625  L 120.3546875 347.31796875  Z M 136.54453125 354.64921875  C 140.82109375 356.1765625  145.403125 357.3984375  149.98515625 358.6203125  L 142.3484375 382.14140625  L 128.9078125 377.86484375  L 136.54453125 354.64921875  Z M 153.3453125 359.53671875  C 157.92734375 361.0640625  162.509375 361.98046875  167.09140625 362.59140625  L 161.8984375 386.7234375  L 148.15234375 383.66875  L 153.3453125 359.53671875  Z M 26.2703125 206.19140625  C 26.57578125 210.7734375  27.18671875 215.6609375  27.79765625 220.24296875  L 3.36015624999998 222.68671875  L 1.83281249999998 208.63515625  L 26.2703125 206.19140625  Z M 170.75703125 363.20234375  C 175.3390625 363.81328125  179.92109375 364.42421875  184.80859375 364.7296875  L 182.36484375 389.1671875  L 168.31328125 387.63984375  L 170.75703125 363.20234375  Z M 206.19140625 364.7296875  C 211.07890625 364.42421875  215.6609375 363.81328125  220.24296875 363.20234375  L 222.68671875 387.63984375  L 208.63515625 389.1671875  L 206.19140625 364.7296875  Z M 223.90859375 362.896875  C 228.490625 361.98046875  233.07265625 361.0640625  237.6546875 359.8421875  L 242.84765625 383.97421875  L 229.1015625 387.02890625  L 223.90859375 362.896875  Z M 241.01484375 358.31484375  C 245.596875 357.3984375  250.17890625 356.1765625  254.45546875 354.34375  L 262.0921875 377.559375  L 248.6515625 381.8359375  L 241.01484375 358.31484375  Z M 258.12109375 353.121875  C 262.39765625 351.2890625  266.67421875 349.45625  270.95078125 347.31796875  L 281.03125 369.92265625  L 268.2015625 375.7265625  L 258.12109375 353.121875  Z M 274.00546875 345.790625  C 278.28203125 343.65234375  282.253125 341.20859375  286.22421875 338.76484375  L 298.44296875 360.14765625  L 286.22421875 367.1734375  L 274.00546875 345.790625  Z M 289.27890625 336.6265625  C 293.25 334.1828125  296.915625 331.128125  300.58125 328.37890625  L 314.93828125 348.234375  L 303.6359375 356.48203125  L 289.27890625 336.6265625  Z M 303.6359375 326.240625  C 307.3015625 323.1859375  310.66171875 319.82578125  314.021875 316.77109375  L 330.5171875 335.09921875  L 320.13125 344.56875  L 303.6359375 326.240625  Z M 316.465625 314.021875  C 319.82578125 310.66171875  323.1859375 307.3015625  325.93515625 303.6359375  L 344.26328125 320.13125  L 334.79375 330.5171875  L 316.465625 314.021875  Z M 328.37890625 300.58125  C 331.128125 296.915625  334.1828125 293.25  336.6265625 289.27890625  L 356.48203125 303.6359375  L 348.234375 314.93828125  L 328.37890625 300.58125  Z M 338.76484375 286.22421875  C 341.20859375 282.253125  343.65234375 278.28203125  345.790625 274.00546875  L 367.1734375 286.22421875  L 360.14765625 298.44296875  L 338.76484375 286.22421875  Z M 347.31796875 270.95078125  C 349.45625 266.67421875  351.2890625 262.39765625  353.121875 258.12109375  L 375.7265625 268.2015625  L 369.92265625 281.03125  L 347.31796875 270.95078125  Z M 354.64921875 254.45546875  C 356.1765625 250.17890625  357.3984375 245.596875  358.6203125 241.01484375  L 382.14140625 248.6515625  L 377.86484375 262.0921875  L 354.64921875 254.45546875  Z M 189 364.7296875  C 190.91796875 365.03515625  193.05625 365.03515625  195.5 365.03515625  C 197.94375 365.03515625  200.08203125 365.03515625  202 364.7296875  L 202 389  L 189 389  L 189 364.7296875  Z M 26.2703125 189  C 25.96484375 190.91796875  25.96484375 193.05625  25.96484375 195.5  C 25.96484375 197.94375  25.96484375 200.08203125  26.2703125 202  L 2 202  L 2 189  L 26.2703125 189  Z M 27.79765625 170.75703125  C 27.18671875 175.3390625  26.57578125 179.92109375  26.2703125 184.80859375  L 1.83281249999998 182.36484375  L 3.36015624999998 168.31328125  L 27.79765625 170.75703125  Z M 31.46328125 153.3453125  C 29.9359375 157.92734375  29.01953125 162.509375  28.40859375 167.09140625  L 4.27656250000002 161.8984375  L 7.33125000000002 148.15234375  L 31.46328125 153.3453125  Z M 364.7296875 184.80859375  C 364.42421875 179.92109375  363.81328125 175.3390625  363.20234375 170.75703125  L 387.63984375 168.31328125  L 389.1671875 182.36484375  L 364.7296875 184.80859375  Z M 362.896875 167.09140625  C 361.98046875 162.509375  361.0640625 157.92734375  359.8421875 153.3453125  L 383.97421875 148.15234375  L 387.02890625 161.8984375  L 362.896875 167.09140625  Z M 358.31484375 149.98515625  C 357.3984375 145.403125  356.1765625 140.82109375  354.34375 136.54453125  L 377.559375 128.9078125  L 381.8359375 142.3484375  L 358.31484375 149.98515625  Z M 353.121875 132.87890625  C 351.2890625 128.60234375  349.45625 124.32578125  347.31796875 120.04921875  L 369.92265625 109.96875  L 375.7265625 122.7984375  L 353.121875 132.87890625  Z M 345.790625 116.99453125  C 343.65234375 112.71796875  341.20859375 108.746875  338.76484375 104.77578125  L 360.14765625 92.55703125  L 367.1734375 104.77578125  L 345.790625 116.99453125  Z M 336.6265625 101.72109375  C 334.1828125 97.75  331.43359375 94.084375  328.37890625 90.41875  L 348.234375 76.06171875  L 356.48203125 87.3640625  L 336.6265625 101.72109375  Z M 326.240625 87.3640625  C 323.1859375 83.6984375  319.82578125 80.33828125  316.77109375 76.978125  L 335.09921875 60.4828125  L 344.56875 70.86875  L 326.240625 87.3640625  Z M 314.021875 74.534375  C 310.66171875 71.17421875  307.3015625 67.8140625  303.6359375 65.06484375  L 320.13125 46.73671875  L 330.5171875 56.20625  L 314.021875 74.534375  Z M 300.58125 62.62109375  C 296.915625 59.56640625  293.25 56.8171875  289.27890625 54.3734375  L 303.6359375 34.51796875  L 314.93828125 42.765625  L 300.58125 62.62109375  Z M 286.22421875 52.23515625  C 282.253125 49.79140625  278.28203125 47.34765625  274.00546875 45.209375  L 286.22421875 23.8265625  L 298.44296875 30.85234375  L 286.22421875 52.23515625  Z M 270.95078125 43.68203125  C 266.67421875 41.54375  262.39765625 39.7109375  258.12109375 37.878125  L 268.2015625 15.2734375  L 281.03125 21.07734375  L 270.95078125 43.68203125  Z M 254.45546875 36.35078125  C 250.17890625 34.8234375  245.596875 33.6015625  241.01484375 32.3796875  L 248.6515625 8.85859374999997  L 262.0921875 13.13515625  L 254.45546875 36.35078125  Z M 237.6546875 31.46328125  C 233.07265625 29.9359375  228.490625 29.01953125  223.90859375 28.40859375  L 229.1015625 4.27656249999997  L 242.84765625 7.33124999999997  L 237.6546875 31.46328125  Z M 220.24296875 27.79765625  C 215.6609375 27.18671875  211.07890625 26.57578125  206.19140625 26.2703125  L 208.63515625 1.83281249999998  L 222.68671875 3.36015624999998  L 220.24296875 27.79765625  Z M 202 26.2703125  C 200.08203125 25.96484375  197.94375 25.96484375  195.5 25.96484375  C 193.05625 25.96484375  190.91796875 25.96484375  189 26.2703125  L 189 2  L 202 2  L 202 26.2703125  Z M 184.80859375 26.2703125  C 179.92109375 26.57578125  175.3390625 27.18671875  170.75703125 27.79765625  L 168.31328125 3.36015624999998  L 182.36484375 1.83281249999998  L 184.80859375 26.2703125  Z M 167.09140625 28.103125  C 162.509375 29.01953125  157.92734375 29.9359375  153.3453125 31.1578125  L 148.15234375 7.02578124999999  L 161.8984375 3.97109374999999  L 167.09140625 28.103125  Z M 149.98515625 32.68515625  C 145.403125 33.6015625  140.82109375 34.8234375  136.54453125 36.65625  L 128.9078125 13.440625  L 142.3484375 9.1640625  L 149.98515625 32.68515625  Z M 132.87890625 37.878125  C 128.60234375 39.7109375  124.32578125 41.54375  120.04921875 43.68203125  L 109.96875 21.07734375  L 122.7984375 15.2734375  L 132.87890625 37.878125  Z M 116.99453125 45.209375  C 112.71796875 47.34765625  108.746875 49.79140625  104.77578125 52.23515625  L 92.55703125 30.85234375  L 104.77578125 23.8265625  L 116.99453125 45.209375  Z M 101.72109375 54.3734375  C 97.75 56.8171875  94.084375 59.56640625  90.41875 62.62109375  L 76.06171875 42.765625  L 87.3640625 34.51796875  L 101.72109375 54.3734375  Z M 87.3640625 64.759375  C 83.6984375 67.8140625  80.33828125 71.17421875  76.978125 74.22890625  L 60.4828124999999 55.90078125  L 70.86875 46.43125  L 87.3640625 64.759375  Z M 74.534375 76.978125  C 71.17421875 80.33828125  67.8140625 83.6984375  65.06484375 87.3640625  L 46.73671875 70.86875  L 56.20625 60.4828124999999  L 74.534375 76.978125  Z M 62.62109375 90.41875  C 59.56640625 94.084375  56.8171875 97.75  54.3734375 101.72109375  L 34.51796875 87.3640625  L 42.765625 76.06171875  L 62.62109375 90.41875  Z M 52.2351562500001 104.77578125  C 49.79140625 108.746875  47.34765625 112.71796875  45.209375 116.99453125  L 23.8265625 104.77578125  L 30.8523437500001 92.55703125  L 52.2351562500001 104.77578125  Z M 43.68203125 120.04921875  C 41.54375 124.32578125  39.7109375 128.60234375  37.878125 132.87890625  L 15.2734375 122.7984375  L 21.07734375 109.96875  L 43.68203125 120.04921875  Z M 36.35078125 136.54453125  C 34.8234375 140.82109375  33.6015625 145.403125  32.3796875 149.98515625  L 8.85859375000002 142.3484375  L 13.13515625 128.9078125  L 36.35078125 136.54453125  Z M 359.53671875 237.6546875  C 361.0640625 233.07265625  361.98046875 228.490625  362.59140625 223.90859375  L 386.7234375 229.1015625  L 383.66875 242.84765625  L 359.53671875 237.6546875  Z M 363.20234375 220.24296875  C 363.81328125 215.6609375  364.42421875 210.7734375  364.7296875 206.19140625  L 389.1671875 208.63515625  L 387.63984375 222.68671875  L 363.20234375 220.24296875  Z " fill-rule="nonzero" fill="#1ecfef" stroke="none" transform="matrix(1 0 0 1 767 448 )" />
  </g>
</svg>